<svg width="62" height="24" viewBox="0 0 62 24" fill="none" xmlns="http://www.w3.org/2000/svg">
<g id="Logo">
<path id="Vector" d="M45.349 9.419H43.1945V16.801C43.1944 16.8683 43.1676 16.9328 43.12 16.9803C43.0725 17.0279 43.008 17.0547 42.9407 17.0548H41.2792C41.2119 17.0547 41.1474 17.0279 41.0999 16.9803C41.0523 16.9328 41.0255 16.8683 41.0254 16.801V9.419H38.8583C38.8257 9.42035 38.7931 9.41512 38.7626 9.40364C38.732 9.39215 38.704 9.37465 38.6804 9.35215C38.6567 9.32966 38.6378 9.30265 38.6247 9.27271C38.6117 9.24277 38.6048 9.21052 38.6045 9.17787V7.87215C38.6048 7.8395 38.6117 7.80725 38.6247 7.77731C38.6378 7.74738 38.6567 7.72036 38.6804 7.69787C38.704 7.67538 38.732 7.65787 38.7626 7.64639C38.7931 7.6349 38.8257 7.62968 38.8583 7.63102H45.3484C45.4157 7.62786 45.4815 7.65145 45.5314 7.69664C45.5813 7.74182 45.6113 7.80492 45.6149 7.87215V9.17839C45.6112 9.24544 45.5812 9.30833 45.5314 9.35338C45.4816 9.39844 45.416 9.42202 45.349 9.419Z" fill="#E31C58"/>
<path id="Vector_2" d="M52.2653 17.0017C51.8214 17.0649 51.0746 17.1665 49.7048 17.1665C48.0686 17.1665 46.623 16.7479 46.623 14.4403V10.2283C46.623 7.92064 48.0818 7.51471 49.7175 7.51471C51.0867 7.51471 51.8214 7.61632 52.2653 7.6795C52.4428 7.70478 52.5191 7.76848 52.5191 7.93328V9.11421C52.519 9.18147 52.4922 9.24594 52.4446 9.2935C52.3971 9.34106 52.3326 9.36784 52.2653 9.36798H49.5911C48.995 9.36798 48.7796 9.57068 48.7796 10.2304V11.3845H52.1642C52.2315 11.3846 52.2959 11.4114 52.3435 11.4589C52.3911 11.5065 52.4179 11.571 52.418 11.6382V12.8429C52.4179 12.9101 52.3911 12.9746 52.3435 13.0222C52.2959 13.0697 52.2315 13.0965 52.1642 13.0966H48.7796V14.4408C48.7796 15.1 48.995 15.3032 49.5911 15.3032H52.2653C52.3326 15.3033 52.3971 15.3301 52.4446 15.3777C52.4922 15.4252 52.519 15.4897 52.5191 15.557V16.7363C52.5191 16.9001 52.4428 16.9764 52.2653 17.0017Z" fill="#E31C58"/>
<path id="Vector_3" d="M61.8356 17.052H59.8191C59.6543 17.052 59.5779 16.9993 59.4895 16.8619L57.7411 14.0867L56.157 16.8008C56.068 16.953 55.9795 17.0546 55.841 17.0546H53.9641C53.8372 17.0546 53.774 16.9783 53.774 16.8898C53.7765 16.8588 53.7851 16.8285 53.7993 16.8008L56.5467 12.2203L53.7709 7.8709C53.7568 7.84768 53.7482 7.82158 53.7456 7.79456C53.7501 7.74797 53.7724 7.7049 53.8078 7.67424C53.8431 7.64357 53.8889 7.62765 53.9357 7.62976H55.9774C56.117 7.62976 56.2186 7.75665 56.2934 7.8709L57.9159 10.4323L59.4863 7.8709C59.5495 7.75665 59.6638 7.62976 59.8023 7.62976H61.6792C61.7259 7.62765 61.7717 7.64357 61.8071 7.67424C61.8425 7.7049 61.8647 7.74797 61.8693 7.79456C61.8667 7.82158 61.8581 7.84768 61.844 7.8709L59.0819 12.2471L61.9625 16.8008C61.985 16.8395 61.998 16.883 62.0004 16.9277C62.0009 17.0014 61.9372 17.052 61.8356 17.052Z" fill="#E31C58"/>
<path id="Vector_4" d="M35.5666 7.65636C35.5213 7.65648 35.4775 7.67228 35.4425 7.70108C35.4076 7.72988 35.3837 7.76989 35.3749 7.81431L33.5339 14.6267C33.5086 14.7662 33.4707 14.8167 33.3564 14.8167C33.2421 14.8167 33.2042 14.7641 33.1789 14.6267L31.3357 7.81273C31.327 7.76831 31.3031 7.7283 31.2681 7.6995C31.2332 7.6707 31.1893 7.6549 31.144 7.65479H29.3319C29.3025 7.65482 29.2734 7.66149 29.2468 7.67432C29.2203 7.68715 29.197 7.70579 29.1787 7.72887C29.1604 7.75194 29.1475 7.77885 29.141 7.80759C29.1345 7.83633 29.1346 7.86617 29.1413 7.89487C29.1413 7.89487 31.39 15.7076 31.4147 15.7844C31.7149 16.7153 32.4432 17.1602 33.3701 17.1602C34.2527 17.1602 35.0231 16.6942 35.3244 15.7871C35.3602 15.6818 37.5588 7.89434 37.5588 7.89434C37.5654 7.86568 37.5654 7.8359 37.5589 7.80723C37.5524 7.77855 37.5395 7.75171 37.5212 7.7287C37.5029 7.70569 37.4796 7.6871 37.4531 7.6743C37.4266 7.6615 37.3976 7.65483 37.3682 7.65479L35.5666 7.65636Z" fill="#E31C58"/>
<path id="Vector_5" d="M24.4007 0.802795H4.70498C3.17777 0.802795 2.19983 2.42599 2.91446 3.7754L4.88456 7.50511H1.313C1.08681 7.50517 0.864483 7.56364 0.667538 7.67484C0.470592 7.78604 0.305708 7.9462 0.188855 8.13981C0.0720024 8.33343 0.00714212 8.55393 0.000556886 8.77996C-0.00602834 9.00599 0.0458841 9.22989 0.151267 9.42998L6.48812 21.421C6.59984 21.6318 6.76692 21.8083 6.97142 21.9314C7.17592 22.0545 7.41011 22.1195 7.6488 22.1195C7.8875 22.1195 8.12168 22.0545 8.32618 21.9314C8.53068 21.8083 8.69777 21.6318 8.80948 21.421L10.5305 18.1819L12.6896 22.2686C13.4496 23.7059 15.5081 23.7086 16.2707 22.2728L26.1428 3.70011C26.8405 2.3865 25.8884 0.802795 24.4007 0.802795ZM15.5534 8.73816L11.2967 16.7483C11.2223 16.8885 11.1111 17.0059 10.9751 17.0877C10.839 17.1695 10.6832 17.2128 10.5244 17.2128C10.3656 17.2128 10.2099 17.1695 10.0738 17.0877C9.93773 17.0059 9.82653 16.8885 9.75213 16.7483L5.53652 8.77186C5.46606 8.63887 5.43114 8.48994 5.43515 8.3395C5.43915 8.18906 5.48195 8.0422 5.55939 7.91315C5.63683 7.7841 5.74629 7.67722 5.87717 7.60288C6.00804 7.52853 6.15591 7.48923 6.30644 7.48878H14.8025C14.9492 7.48879 15.0935 7.52677 15.2212 7.59902C15.349 7.67127 15.4558 7.77534 15.5314 7.90111C15.607 8.02688 15.6488 8.17006 15.6526 8.31674C15.6565 8.46342 15.6223 8.6086 15.5534 8.73816Z" fill="#E31C58"/>
</g>
</svg>
