<svg width="18" height="19" viewBox="0 0 18 19" fill="none" xmlns="http://www.w3.org/2000/svg">
<path d="M16.9297 0.724609H0.960938C0.523437 0.724609 0.195312 1.05273 0.195312 1.49023V17.5684C0.195312 17.8965 0.523437 18.2246 0.960938 18.2246H17.0391C17.4766 18.2246 17.8047 17.8965 17.8047 17.459V1.49023C17.6953 1.05273 17.3672 0.724609 16.9297 0.724609ZM5.33594 15.5996H2.82031V7.28711H5.44531V15.5996H5.33594ZM4.13281 6.19336C3.25781 6.19336 2.60156 5.42773 2.60156 4.66211C2.60156 3.78711 3.25781 3.13086 4.13281 3.13086C5.00781 3.13086 5.66406 3.78711 5.66406 4.66211C5.55469 5.42773 4.89844 6.19336 4.13281 6.19336ZM15.0703 15.5996H12.4453V11.5527C12.4453 10.5684 12.4453 9.36523 11.1328 9.36523C9.82031 9.36523 9.60156 10.459 9.60156 11.5527V15.709H6.97656V7.28711H9.49219V8.38086C9.82031 7.72461 10.6953 7.06836 11.8984 7.06836C14.5234 7.06836 14.9609 8.81836 14.9609 11.0059V15.5996H15.0703Z" fill="#C4CCD9"/>
</svg>
