<svg width="18" height="13" viewBox="0 0 18 13" fill="none" xmlns="http://www.w3.org/2000/svg">
<path d="M17.6042 2.97461C17.6042 2.97461 17.4583 1.73503 16.875 1.22461C16.2188 0.495443 15.4896 0.495443 15.125 0.495443C12.6458 0.349609 9 0.349609 9 0.349609C9 0.349609 5.35417 0.349609 2.875 0.495443C2.51042 0.568359 1.78125 0.56836 1.125 1.22461C0.614583 1.73503 0.395833 2.97461 0.395833 2.97461C0.395833 2.97461 0.25 4.36003 0.25 5.81836V7.13086C0.25 8.51627 0.395833 9.97461 0.395833 9.97461C0.395833 9.97461 0.541667 11.2142 1.125 11.7246C1.78125 12.4538 2.65625 12.3809 3.02083 12.4538C4.40625 12.5996 9 12.5996 9 12.5996C9 12.5996 12.6458 12.5996 15.125 12.3809C15.4896 12.3079 16.2188 12.3079 16.875 11.6517C17.3854 11.1413 17.6042 9.90169 17.6042 9.90169C17.6042 9.90169 17.75 8.51627 17.75 7.05794V5.74544C17.75 4.36002 17.6042 2.97461 17.6042 2.97461ZM7.17708 8.73502V3.84961L11.9167 6.32877L7.17708 8.73502Z" fill="#C4CCD9"/>
</svg>
