<svg width="79" height="30" viewBox="0 0 79 30" fill="none" xmlns="http://www.w3.org/2000/svg">
<path d="M57.555 11.6448H54.8207V20.9682C54.8205 21.0531 54.7865 21.1346 54.7262 21.1946C54.6658 21.2547 54.584 21.2885 54.4986 21.2887H52.3899C52.3045 21.2885 52.2227 21.2547 52.1623 21.1946C52.1019 21.1346 52.0679 21.0531 52.0677 20.9682V11.6448H49.3175C49.276 11.6465 49.2347 11.6399 49.1959 11.6253C49.1571 11.6108 49.1216 11.5887 49.0916 11.5603C49.0615 11.5319 49.0375 11.4978 49.021 11.46C49.0045 11.4222 48.9957 11.3814 48.9953 11.3402V9.6911C48.9957 9.64986 49.0045 9.60913 49.021 9.57132C49.0375 9.5335 49.0615 9.49938 49.0916 9.47097C49.1216 9.44257 49.1571 9.42046 49.1959 9.40595C49.2347 9.39145 49.276 9.38485 49.3175 9.38654H57.5543C57.6397 9.38256 57.7232 9.41236 57.7865 9.46942C57.8499 9.52648 57.888 9.60618 57.8925 9.6911V11.3409C57.8878 11.4255 57.8498 11.505 57.7866 11.5619C57.7234 11.6188 57.6401 11.6486 57.555 11.6448Z" fill="white"/>
<path d="M66.3331 21.2216C65.7697 21.3014 64.822 21.4298 63.0836 21.4298C61.007 21.4298 59.1723 20.9011 59.1723 17.9866V12.6669C59.1723 9.75238 61.0237 9.23969 63.0996 9.23969C64.8373 9.23969 65.7697 9.36803 66.3331 9.44783C66.5583 9.47975 66.6553 9.56021 66.6553 9.76834V11.2598C66.6551 11.3448 66.6211 11.4262 66.5607 11.4863C66.5003 11.5464 66.4185 11.5802 66.3331 11.5804H62.9392C62.1826 11.5804 61.9093 11.8364 61.9093 12.6696V14.1272H66.2048C66.2902 14.1273 66.372 14.1612 66.4324 14.2212C66.4928 14.2813 66.5268 14.3627 66.5269 14.4477V15.9691C66.5268 16.0541 66.4928 16.1355 66.4324 16.1956C66.372 16.2556 66.2902 16.2894 66.2048 16.2896H61.9093V17.9873C61.9093 18.8198 62.1826 19.0765 62.9392 19.0765H66.3331C66.4185 19.0767 66.5003 19.1105 66.5607 19.1705C66.6211 19.2306 66.6551 19.312 66.6553 19.397V20.8865C66.6553 21.0933 66.5583 21.1897 66.3331 21.2216Z" fill="white"/>
<path d="M78.4772 21.2855H75.9181C75.7089 21.2855 75.612 21.219 75.4997 21.0455L73.2807 17.5405L71.2703 20.9683C71.1574 21.1605 71.0451 21.2889 70.8693 21.2889H68.4873C68.3262 21.2889 68.246 21.1924 68.246 21.0807C68.2491 21.0415 68.26 21.0033 68.2781 20.9683L71.7649 15.1832L68.242 9.68992C68.2241 9.6606 68.2132 9.62763 68.2099 9.5935C68.2157 9.53466 68.2439 9.48026 68.2888 9.44154C68.3337 9.40281 68.3918 9.3827 68.4512 9.38537H71.0424C71.2195 9.38537 71.3485 9.54562 71.4434 9.68992L73.5026 12.925L75.4957 9.68992C75.5759 9.54562 75.7209 9.38537 75.8967 9.38537H78.2787C78.3381 9.3827 78.3962 9.40281 78.4411 9.44154C78.486 9.48026 78.5142 9.53466 78.52 9.5935C78.5167 9.62763 78.5058 9.6606 78.4879 9.68992L74.9824 15.2171L78.6383 20.9683C78.6668 21.0172 78.6833 21.0721 78.6864 21.1286C78.6871 21.2217 78.6062 21.2855 78.4772 21.2855Z" fill="white"/>
<path d="M45.138 9.41846C45.0805 9.41861 45.0249 9.43857 44.9805 9.47494C44.9362 9.51131 44.9058 9.56184 44.8947 9.61795L42.5581 18.2219C42.526 18.3981 42.4779 18.4619 42.3329 18.4619C42.1879 18.4619 42.1397 18.3955 42.1077 18.2219L39.7684 9.61595C39.7573 9.55985 39.7269 9.50931 39.6826 9.47294C39.6382 9.43657 39.5826 9.41661 39.5251 9.41646H37.2253C37.1879 9.4165 37.151 9.42494 37.1173 9.44114C37.0836 9.45734 37.0541 9.48088 37.0308 9.51003C37.0076 9.53917 36.9912 9.57316 36.983 9.60946C36.9748 9.64576 36.9749 9.68344 36.9833 9.71969C36.9833 9.71969 39.8372 19.5871 39.8686 19.6841C40.2496 20.8598 41.174 21.4217 42.3503 21.4217C43.4704 21.4217 44.4482 20.8332 44.8305 19.6875C44.876 19.5545 47.6664 9.71902 47.6664 9.71902C47.6747 9.68282 47.6747 9.64522 47.6665 9.609C47.6582 9.57278 47.6418 9.53888 47.6186 9.50982C47.5954 9.48076 47.5658 9.45727 47.5322 9.44111C47.4986 9.42495 47.4618 9.41653 47.4244 9.41646L45.138 9.41846Z" fill="white"/>
<path d="M30.9679 0.762695H5.97127C4.03303 0.762695 2.79189 2.81277 3.69885 4.51707L6.19918 9.22766H1.66638C1.37932 9.22775 1.09715 9.30158 0.847198 9.44203C0.597247 9.58247 0.387986 9.78476 0.239683 10.0293C0.0913811 10.2738 0.00906434 10.5523 0.000706766 10.8378C-0.00765081 11.1233 0.0582334 11.4061 0.191979 11.6588L8.23433 26.8033C8.37611 27.0696 8.58817 27.2925 8.84771 27.4479C9.10725 27.6034 9.40446 27.6855 9.7074 27.6855C10.0103 27.6855 10.3075 27.6034 10.5671 27.4479C10.8266 27.2925 11.0387 27.0696 11.1805 26.8033L13.3647 22.7124L16.1049 27.8738C17.0694 29.6892 19.682 29.6925 20.6498 27.8792L33.1788 4.42198C34.0644 2.7629 32.856 0.762695 30.9679 0.762695ZM19.7395 10.785L14.3371 20.9017C14.2427 21.0788 14.1016 21.227 13.9289 21.3304C13.7562 21.4337 13.5585 21.4884 13.357 21.4884C13.1554 21.4884 12.9577 21.4337 12.7851 21.3304C12.6124 21.227 12.4712 21.0788 12.3768 20.9017L7.02661 10.8276C6.93719 10.6596 6.89287 10.4715 6.89796 10.2815C6.90304 10.0915 6.95736 9.90601 7.05564 9.74301C7.15392 9.58002 7.29284 9.44504 7.45894 9.35114C7.62505 9.25724 7.81271 9.20761 8.00375 9.20704H18.7864C18.9726 9.20705 19.1557 9.25501 19.3178 9.34627C19.48 9.43752 19.6156 9.56896 19.7115 9.72781C19.8075 9.88665 19.8605 10.0675 19.8654 10.2527C19.8703 10.438 19.8269 10.6214 19.7395 10.785Z" fill="white"/>
</svg>
