<svg width="200" height="40" viewBox="0 0 200 40" fill="none" xmlns="http://www.w3.org/2000/svg">
<path d="M15.1462 26.8181V29.2428H0V12.5797H2.72362V26.8181H15.1462ZM13.0205 18.636L16.0541 12.8787H13.1755L10.9057 18.636H13.0205ZM37.7881 15.3145C36.8027 13.7644 35.3745 12.469 33.6805 11.5833C31.9865 10.6975 30.0489 10.2214 28.1003 10.2214C26.1516 10.2214 24.214 10.6975 22.52 11.5833C20.826 12.469 19.3978 13.7644 18.4124 15.3145C17.427 16.8645 16.8956 18.6471 16.8956 20.4407C16.8956 22.2344 17.427 24.028 18.4124 25.567C19.3978 27.117 20.826 28.4124 22.52 29.2982C24.214 30.1839 26.1516 30.66 28.1003 30.66C30.0489 30.66 31.9865 30.1839 33.6805 29.2982C35.3745 28.4124 36.8027 27.117 37.7881 25.567C38.7735 24.0169 39.3049 22.2344 39.3049 20.4407C39.3049 18.6582 38.7735 16.8645 37.7881 15.3145ZM35.4409 24.5262C34.7101 25.733 33.6362 26.7627 32.374 27.4602C31.1118 28.1578 29.6503 28.5342 28.1888 28.5342C26.7273 28.5342 25.2658 28.1578 24.0036 27.4602C22.7414 26.7627 21.6676 25.7441 20.9368 24.5262C20.2061 23.3083 19.8075 21.9133 19.8075 20.5071C19.8075 19.101 20.2061 17.706 20.9368 16.4881C21.6676 15.2813 22.7414 14.2516 24.0036 13.5541C25.2658 12.8565 26.7273 12.4801 28.1888 12.4801C29.6503 12.4801 31.1118 12.8565 32.374 13.5541C33.6362 14.2516 34.7101 15.2702 35.4409 16.4881C36.1716 17.6949 36.5702 19.09 36.5702 20.5071C36.5592 21.9243 36.1716 23.3194 35.4409 24.5262ZM58.3262 19.7653C57.828 20.8504 56.898 21.4815 56.1673 21.8579C55.4365 22.2344 54.9162 22.3672 54.3847 22.3561L59.6882 29.2428H56.6545L51.5283 22.5776H44.8408V29.2428H42.1172V12.5797H53.0229C54.1301 12.5797 55.2484 12.8012 56.2338 13.3548C57.2192 13.9083 58.0716 14.7498 58.4702 15.9456C58.8688 17.1413 58.8134 18.6803 58.3262 19.7653ZM55.2705 19.6546C55.8463 19.1675 56.1894 18.3703 56.1562 17.5842C56.123 16.787 55.7244 16.012 55.1597 15.5248C54.584 15.0487 53.8644 15.0045 53.1669 15.0045H44.8298V20.1529H53.1669C53.9087 20.1529 54.7059 20.1418 55.2705 19.6546ZM74.0815 19.6989V21.9686H64.8365V26.8181H77.2591V29.2428H62.1128V12.5797H77.2591V15.0045H64.8365V19.6989H74.0815ZM74.2366 10H70.1399L68.4791 12.1258L74.2366 10ZM82.6068 25.0023L80.4478 29.2428H77.7241L86.2051 12.5797H88.9287L97.4098 29.2428H94.6862L92.5271 25.0023H82.6068ZM87.5669 15.2591L83.6807 22.8765H91.4421L87.5669 15.2591ZM113.929 26.8181V29.2428H98.7827V12.5797H101.506V26.8181H113.929ZM112.744 15.9234L112.722 15.5248C112.722 15.4473 112.722 15.3809 112.7 15.2923C112.667 15.2038 112.623 15.1262 112.567 15.0598C112.523 15.0045 112.467 14.9712 112.401 14.9602C112.523 14.9159 112.623 14.8384 112.678 14.7277C112.744 14.6169 112.789 14.4619 112.789 14.3069C112.789 14.1409 112.733 13.9748 112.656 13.8419C112.467 13.5651 112.146 13.5208 111.859 13.5319H110.652V16.3109H111.117V15.1705H111.814C111.892 15.1705 112.014 15.1595 112.146 15.2591C112.313 15.4584 112.235 15.7241 112.268 15.9456C112.268 16.0784 112.279 16.2002 112.335 16.3109H112.866V16.2224C112.766 16.2002 112.755 16.0674 112.744 15.9234ZM112.168 14.6944C112.025 14.783 111.87 14.783 111.77 14.783H111.106V13.9305C111.393 13.9305 111.681 13.9194 111.969 13.9416C112.102 13.9526 112.224 14.0412 112.279 14.163C112.346 14.3623 112.346 14.5505 112.168 14.6944Z" fill="#142032"/>
</svg>