<svg width="200" height="40" viewBox="0 0 200 40" fill="none" xmlns="http://www.w3.org/2000/svg">
<path d="M16.5533 2.06114C19.3382 1.83128 22.1771 2.25039 24.7726 3.30485C27.4494 4.3728 29.8556 6.1167 31.7212 8.32031C34.3574 11.4025 35.8849 15.3906 35.9931 19.4462C36.1148 23.0285 35.1279 26.6516 33.1948 29.6797C31.5995 32.1942 29.3555 34.3031 26.7598 35.7496C24.2185 37.1691 21.3119 37.9532 18.3919 37.9937C15.3908 38.0749 12.3761 37.3718 9.71286 35.9795C5.63019 33.884 2.41285 30.1529 0.952771 25.7999C0.0470962 23.1638 -0.209741 20.3248 0.168769 17.5671C0.736535 13.2681 2.92652 9.22598 6.21157 6.40065C9.07751 3.89973 12.7546 2.35857 16.5533 2.06114ZM5.72488 29.0984C6.15748 29.0984 6.57659 29.0984 7.0092 29.0984C7.3065 27.8141 7.67152 26.5569 8.13124 25.3132C8.52324 24.2587 8.96933 23.2178 9.6183 22.2986C10.0644 21.6767 10.6456 21.136 11.3351 20.8115C12.1057 20.4465 13.052 20.3654 13.8496 20.7034C14.8635 21.136 15.5664 22.0418 16.1883 22.9068C16.8913 24.0154 17.4591 25.205 17.9863 26.4217C18.7433 24.786 19.4463 23.0826 20.7035 21.7578C21.1227 21.3117 21.6228 20.8926 22.2041 20.6764C23.0828 20.3383 24.1103 20.5006 24.9079 20.9602C25.9217 21.5416 26.5977 22.5419 27.0979 23.5828C27.9496 25.3403 28.5037 27.2194 28.9634 29.1119C29.3961 29.1119 29.8287 29.1119 30.2478 29.1119C27.9631 21.5551 25.6649 13.9981 23.3802 6.44124C21.6498 12.1596 19.933 17.8644 18.2161 23.5828C18.1485 23.7857 18.1079 24.0154 17.9997 24.2046C17.2833 21.893 16.5939 19.5813 15.891 17.2697C14.8094 13.6602 13.7145 10.0507 12.6329 6.45474C10.3077 13.9846 8.02305 21.5416 5.72488 29.0984Z" fill="#142032"/>
<path d="M136.384 27.2464C136.384 20.7304 136.384 14.228 136.384 7.71204C137.37 7.71204 138.371 7.71204 139.357 7.71204C139.357 14.228 139.357 20.7304 139.357 27.2464C138.371 27.2464 137.37 27.2464 136.384 27.2464Z" fill="#142032"/>
<path d="M84.0104 8.11761C84.9973 8.11761 85.9976 8.11761 86.9845 8.11761C86.9845 9.44253 86.9845 10.7673 86.9845 12.0921C88.2688 12.0921 89.5395 12.0921 90.8238 12.0921C90.8238 13.079 90.8238 14.0793 90.8238 15.0662C89.5395 15.0662 88.2688 15.0662 86.9845 15.0662C86.9845 17.3374 86.971 19.6085 86.9845 21.8797C87.0251 23.3802 88.2553 24.7186 89.7288 24.9079C90.0938 24.9618 90.4723 24.9484 90.8373 24.9484C90.8373 25.9352 90.8373 26.9356 90.8373 27.9225C89.7018 27.9766 88.5526 27.8279 87.5253 27.3141C85.4705 26.3408 84.0375 24.1778 83.9969 21.8932C83.9969 17.2968 84.0104 12.714 84.0104 8.11761Z" fill="#142032"/>
<path d="M98.9094 11.7267C100.599 11.5104 102.343 11.8618 103.817 12.7136C105.939 13.9167 107.454 16.1608 107.751 18.5941C107.967 20.2569 107.629 22.0008 106.804 23.4609C106.101 24.7181 105.047 25.7726 103.776 26.4891C102.343 27.3002 100.653 27.6381 99.0174 27.4489C96.6112 27.192 94.3806 25.7591 93.1369 23.6906C91.9337 21.744 91.6633 19.27 92.3799 17.1072C93.1369 14.7684 95.0566 12.8352 97.3952 12.0646C97.8819 11.9024 98.3821 11.7943 98.9094 11.7267ZM98.9094 14.7143C97.2331 15.0387 95.8001 16.3095 95.2187 17.9046C94.7185 19.2971 94.8808 20.9194 95.6648 22.1631C96.4759 23.4879 97.936 24.4072 99.4906 24.5154C101.018 24.6505 102.6 24.0152 103.614 22.8525C104.533 21.825 104.993 20.4057 104.831 19.0403C104.682 17.5937 103.857 16.242 102.641 15.4443C101.559 14.7143 100.18 14.4575 98.9094 14.7143Z" fill="#142032"/>
<path d="M114.807 11.7809C115.658 11.6052 116.537 11.6864 117.416 11.6728C117.416 12.6596 117.416 13.66 117.416 14.6469C116.605 14.674 115.754 14.5387 114.969 14.8226C113.684 15.2417 112.752 16.5396 112.779 17.8913C112.779 21.0277 112.779 24.1776 112.779 27.3139C111.792 27.3139 110.791 27.3139 109.805 27.3139C109.805 24.1776 109.805 21.0277 109.805 17.8913C109.792 16.5665 110.237 15.2283 111.035 14.1738C111.941 12.9436 113.306 12.0649 114.807 11.7809Z" fill="#142032"/>
<path d="M125.472 11.7265C127.176 11.5101 128.946 11.8481 130.433 12.7268C132.569 13.9436 134.07 16.2146 134.34 18.6614C134.543 20.3243 134.192 22.0547 133.354 23.5148C132.637 24.772 131.569 25.8264 130.298 26.5159C128.838 27.327 127.108 27.6379 125.446 27.4215C123.038 27.1242 120.822 25.6236 119.632 23.5148C118.659 21.8248 118.348 19.7835 118.767 17.8774C119.268 15.5252 120.903 13.4569 123.079 12.4294C123.81 12.078 124.634 11.8346 125.472 11.7265ZM125.472 14.7141C123.742 15.0656 122.255 16.4174 121.742 18.1073C121.295 19.5132 121.524 21.1219 122.362 22.3386C123.201 23.5823 124.62 24.4339 126.134 24.5286C127.608 24.6503 129.109 24.0419 130.109 22.9469C131.11 21.8789 131.609 20.3514 131.407 18.9048C131.218 17.4989 130.392 16.2011 129.203 15.4305C128.108 14.7006 126.744 14.4572 125.472 14.7141Z" fill="#142032"/>
<path d="M145.077 12.8624C146.388 12.0513 147.929 11.6186 149.47 11.6727C151.16 11.7133 152.823 12.3217 154.148 13.3762C155.703 14.5928 156.77 16.4043 157.067 18.351C157.204 19.108 157.163 19.8786 157.163 20.6357C157.163 22.8257 157.163 25.0157 157.163 27.2192C156.216 27.2192 155.27 27.2192 154.323 27.2192C154.323 26.7055 154.323 26.1783 154.323 25.6645C153.229 26.5838 151.903 27.1922 150.485 27.422C148.699 27.7059 146.807 27.3545 145.252 26.4352C143.184 25.2319 141.711 23.0419 141.413 20.6627C141.197 19.0674 141.48 17.4182 142.211 15.9853C142.873 14.6875 143.873 13.6059 145.077 12.8624ZM148.267 14.7144C146.415 15.0795 144.861 16.5936 144.442 18.4321C144.089 19.8922 144.455 21.5008 145.402 22.6634C146.253 23.7314 147.564 24.4344 148.93 24.5155C150.417 24.6237 151.944 24.0018 152.944 22.8933C153.891 21.8658 154.364 20.4328 154.202 19.054C154.067 17.648 153.282 16.3367 152.147 15.5256C151.039 14.7416 149.591 14.4441 148.267 14.7144Z" fill="#142032"/>
<path d="M46.4437 12.4444C47.9308 11.8901 49.6342 11.9442 51.0942 12.593C51.9324 12.958 52.6894 13.5394 53.2842 14.2289C54.1224 13.2555 55.2444 12.5391 56.4882 12.2416C57.8805 11.8901 59.3947 12.0389 60.6789 12.6742C62.3958 13.4988 63.6936 15.1482 64.0721 17.0137C64.2344 17.7573 64.1938 18.5278 64.1938 19.2848C64.1938 22.0832 64.1938 24.8815 64.1938 27.6664C63.2069 27.6664 62.2065 27.6664 61.2197 27.6664C61.2197 24.53 61.2197 21.3937 61.2197 18.2575C61.2197 17.311 60.7871 16.3919 60.0706 15.7835C59.273 15.1211 58.1374 14.8777 57.1235 15.1751C56.069 15.4726 55.1903 16.3513 54.9064 17.4192C54.7712 17.8788 54.7849 18.3655 54.7849 18.8387C54.7849 21.7857 54.7849 24.7463 54.7849 27.6934C53.798 27.6934 52.7976 27.6934 51.8107 27.6934C51.8107 24.5571 51.8107 21.4207 51.8107 18.2844C51.8107 17.3923 51.4322 16.5136 50.7698 15.9187C49.9993 15.1886 48.8366 14.8912 47.7956 15.1617C46.4303 15.4996 45.3758 16.8109 45.3758 18.2169C45.3758 21.3802 45.3758 24.53 45.3758 27.6934C44.3889 27.6934 43.3885 27.6934 42.4017 27.6934C42.4017 24.5571 42.4017 21.4207 42.4017 18.2844C42.4017 17.0948 42.7532 15.9187 43.3886 14.9183C44.1051 13.7963 45.2 12.9176 46.4437 12.4444Z" fill="#142032"/>
<path d="M73.2102 12.1185C75.5355 11.8347 77.9823 12.6593 79.6452 14.3087C80.6455 15.2819 81.389 16.5256 81.7541 17.8775C82.3624 20.1081 81.9433 22.609 80.6049 24.5152C79.8479 25.5966 78.8206 26.489 77.6444 27.0702C76.0898 27.8543 74.2647 28.0841 72.5479 27.7462C70.1415 27.273 68.0055 25.6101 66.9647 23.3797C66.1264 21.6356 65.9778 19.5808 66.5186 17.7424C67.1944 15.3901 69.033 13.4298 71.3312 12.5782C71.9395 12.3484 72.5614 12.1997 73.2102 12.1185ZM73.2102 15.1061C71.196 15.4712 69.5332 17.1881 69.2357 19.2159C69.0465 20.3784 69.2898 21.6221 69.9388 22.609C70.6552 23.7582 71.8448 24.5828 73.1697 24.8531C74.3729 25.0965 75.6572 24.8802 76.698 24.2313C77.739 23.5959 78.5366 22.582 78.9016 21.4059C79.1991 20.419 79.1854 19.324 78.834 18.3507C78.4014 17.107 77.4552 16.066 76.2654 15.4983C75.3056 15.0386 74.2242 14.9034 73.2102 15.1061Z" fill="#142032"/>
</svg>