<svg width="200" height="40" viewBox="0 0 200 40" fill="none" xmlns="http://www.w3.org/2000/svg">
<g clip-path="url(#clip0_4417_4046)">
<path d="M16.3827 16.6746H6.62725V7.62024H0V32.3764H6.62725V21.4545H16.3827V32.3764H23.01V7.62024H16.3827V16.6746Z" fill="#142032"/>
<path d="M77.4982 9.27203C76.5622 8.71874 75.552 8.30215 74.4981 8.0349C73.1476 7.73986 71.7677 7.60074 70.3855 7.62027H59.4873V32.3764H66.1146V24.3199H70.2406C71.8355 24.3485 73.4223 24.0858 74.9228 23.5446C76.1849 23.0252 77.3446 22.2856 78.3477 21.3602C79.0973 20.5965 79.6834 19.6881 80.0702 18.6904C80.4716 17.6529 80.6774 16.5499 80.677 15.4375C80.7207 14.1654 80.4363 12.9036 79.8511 11.7733C79.293 10.7525 78.483 9.89142 77.4982 9.27203V9.27203ZM73.5643 17.3623C73.3671 17.8663 73.0404 18.3093 72.6171 18.6466C72.085 19.0676 71.4576 19.3512 70.79 19.4725C70.5091 19.5223 70.2255 19.555 69.9406 19.5702C69.296 19.6425 68.6475 19.6752 67.9989 19.668H66.1078V12.2519H67.2472C68.3394 12.2519 69.1888 12.2789 69.8462 12.3025H69.9406C70.6073 12.3504 71.2636 12.4946 71.889 12.7306C72.4249 12.9502 72.891 13.3114 73.2373 13.7756C73.6458 14.293 73.8604 14.9369 73.8441 15.5959C73.8507 16.2017 73.7562 16.8044 73.5643 17.3791V17.3623Z" fill="#142032"/>
<path d="M103.902 12.4036V7.62024H85.3584V32.3764H103.902V27.5964H91.9385V21.4545H103.052V16.6746H91.9385V12.4036H103.902Z" fill="#142032"/>
<path d="M41.2598 7.11127H41.2362C37.1337 7.11127 33.8808 8.27761 31.5751 10.5833C29.2694 12.889 28.0322 16.0206 28.0322 19.9747C28.0322 23.9288 29.2222 27.0537 31.5751 29.3931C33.928 31.7326 37.1337 32.8888 41.2362 32.8888H41.2598C45.4094 32.8888 48.6151 31.7224 50.968 29.3931C53.321 27.0638 54.4637 23.9322 54.4637 19.9747C54.4637 16.0173 53.2738 12.8958 50.9445 10.5833C48.6151 8.27087 45.3858 7.11127 41.2598 7.11127ZM47.1319 23.5918C46.8628 24.5732 46.3831 25.4842 45.7262 26.2615C45.1749 26.9112 44.4755 27.4188 43.6868 27.7414C42.9197 28.069 42.094 28.2376 41.2598 28.2369C40.4368 28.2348 39.6215 28.0781 38.8563 27.7751C38.0769 27.4445 37.3847 26.938 36.8337 26.2952C36.2153 25.5413 35.7463 24.6764 35.4516 23.7468C35.073 22.5296 34.8931 21.2593 34.919 19.9849C34.8998 18.709 35.0876 17.4386 35.4752 16.2229C35.7515 15.273 36.2325 14.3951 36.8843 13.6509C37.4387 13.0234 38.131 12.5331 38.9069 12.2182C40.4394 11.6304 42.1366 11.6389 43.6632 12.2418C44.4423 12.5508 45.1358 13.0421 45.6858 13.6745C46.3182 14.4106 46.79 15.2705 47.0712 16.1993C47.4555 17.4233 47.6354 18.7023 47.6039 19.9849C47.6262 21.2039 47.4672 22.4195 47.1319 23.5918V23.5918Z" fill="#142032"/>
</g>
<defs>
<clipPath id="clip0_4417_4046">
<rect width="103.902" height="26" fill="white" transform="translate(0 7)"/>
</clipPath>
</defs>
</svg>
