<svg width="200" height="40" viewBox="0 0 200 40" fill="none" xmlns="http://www.w3.org/2000/svg">
<path d="M27.5052 15.3151V29.0795H21.6374V17.0388C21.6374 17.0388 21.4029 15.292 19.6776 15.292H16.6227V29.0795H10.9193V15.292H5.76663V29.0795H0V10H21.4029C27.3861 10 27.5052 15.3151 27.5052 15.3151V15.3151ZM48.6883 10H62.6256L56.244 15.2914H48.6883V10ZM33.1232 17.1754H41.6285V16.301C41.6285 16.301 41.6285 15.0525 39.5833 15.0525H28.753V10.0005H41.375C47.9579 10.0005 47.3324 16.21 47.3324 16.21V24.8035L65.0739 10.0011H80.6875C87.7768 10.0011 88.6711 14.3691 88.6711 19.6449C88.6711 23.4194 88.1857 29.08 81.0933 29.08H68.1725L68.1619 14.2491L50.3198 29.08L33.1227 29.0752C32.2695 29.0752 27.5083 29.3873 27.5083 22.9318C27.5089 16.7907 32.27 17.1754 33.1232 17.1754V17.1754ZM74.0919 23.7875H79.0581C82.2299 23.7875 82.8992 22.6838 82.8992 19.6864C82.8992 16.6804 82.2294 15.292 79.0581 15.292H74.0919V23.7875ZM34.8701 24.3046H41.5273L41.531 21.509H34.8743C34.3263 21.509 33.2607 21.509 33.2607 22.871C33.2607 24.2524 34.3226 24.3046 34.8701 24.3046ZM66.4883 23.7875V29.0795H52.7491L58.9927 23.7875H66.4883ZM94.1494 17.1754H102.659V16.301C102.659 16.301 102.659 15.0525 100.61 15.0525H89.7798V10.0005H102.405C108.98 10.0005 108.359 16.21 108.359 16.21V29.0752H94.1489C93.2973 29.0752 88.5362 29.3873 88.5362 22.9318C88.5362 16.7907 93.2979 17.1754 94.1494 17.1754V17.1754ZM95.8974 24.3046H102.551L102.559 21.509H95.9016C95.3541 21.509 94.2854 21.509 94.2854 22.871C94.2849 24.2524 95.3499 24.3046 95.8974 24.3046Z" fill="#142032"/>
</svg>
