<svg width="200" height="40" viewBox="0 0 200 40" fill="none" xmlns="http://www.w3.org/2000/svg">
<path fill-rule="evenodd" clip-rule="evenodd" d="M53.5497 7.91992C81.3497 7.91992 104.02 13.84 104.02 21.1C104.02 28.36 81.3497 34.2799 53.5497 34.2799C35.5397 34.2799 19.6898 31.7999 10.7598 28.0699V27.5299C19.3098 30.8899 33.8498 33.11 50.2898 33.11C66.6698 33.11 81.1598 30.9099 89.7198 27.5599H94.6198L93.8698 25.5699C96.4298 24.0299 97.8498 22.3299 97.8498 20.5499C97.8498 13.6399 76.4798 8 50.2798 8C48.7698 8 47.2798 8.01994 45.8098 8.05994C48.3398 7.96994 50.9197 7.91992 53.5497 7.91992Z" fill="#142032"/>
<path fill-rule="evenodd" clip-rule="evenodd" d="M0 26.6L2.35004 14.27H13.06L12.61 16.72H5.23999L4.77002 19.38H11.72L11.32 21.7799H4.37L3.37 26.6H0Z" fill="#142032"/>
<path fill-rule="evenodd" clip-rule="evenodd" d="M35.8799 14.27H39.7099L42.8499 22.99L48.7199 14.27H52.3499L43.5199 26.6H40.5899L35.8799 14.27Z" fill="#142032"/>
<path fill-rule="evenodd" clip-rule="evenodd" d="M50.1699 26.6L52.5099 14.27H63.47L63.02 16.6899H55.3599L54.9 19.22H62.15L61.7499 21.58H54.45L53.9 24.23L61.97 24.26L61.58 26.6H50.1699Z" fill="#142032"/>
<path fill-rule="evenodd" clip-rule="evenodd" d="M76.6401 26.6L85.9102 14.27H88.7202L93.3901 26.6H89.6701L88.7401 23.95H82.2001L80.3901 26.6H76.6401ZM87.9901 21.7L86.6401 17.6499L83.8401 21.7H87.9901Z" fill="#142032"/>
<path fill-rule="evenodd" clip-rule="evenodd" d="M74.6898 14.15C76.1598 14.45 77.4399 15.04 78.4099 15.85L75.5399 17.68C74.9499 17.18 74.1698 16.8101 73.2698 16.6201C72.2398 16.4101 70.9498 16.44 69.9498 16.68C67.6998 17.21 65.8898 18.8 65.6198 20.66C65.4698 21.68 65.8198 22.63 66.5098 23.35C66.7798 23.65 67.0898 23.9 67.6398 24.1C68.4798 24.4 69.4599 24.58 70.5399 24.58C71.6499 24.58 72.7398 24.39 73.6998 24.07L74.1198 21.65H70.8798L71.2698 19.24H77.8098L76.6698 25.67C74.7798 26.49 72.5398 26.97 70.2098 26.97C68.4398 26.97 66.8198 26.69 65.4498 26.2C64.5498 25.88 64.0298 25.47 63.5898 24.99C63.3898 24.79 63.2198 24.58 63.0598 24.36C61.6798 22.46 61.9698 19.7201 63.3198 17.8901C64.5998 16.1601 66.7598 14.8201 69.2398 14.2501C70.8798 13.8701 72.9998 13.82 74.6898 14.15Z" fill="#142032"/>
<path fill-rule="evenodd" clip-rule="evenodd" d="M31.7202 11.37L35.8902 10.7799L34.1502 14.0699H32.5202L31.7202 11.37Z" fill="#142032"/>
<path d="M31.7202 11.37L35.8902 10.7799L34.1502 14.0699H32.5202L31.7202 11.37Z" fill="#142032"/>
<path fill-rule="evenodd" clip-rule="evenodd" d="M60.4399 6C89.2899 6 112.81 12.33 112.81 20.09C112.81 26.16 98.4199 31.35 78.3499 33.33C94.5099 31.06 105.64 26.39 105.64 21.01C105.64 13.42 83.4599 7.22998 56.2499 7.22998C38.9899 7.22998 23.7599 9.71998 14.9199 13.48L14.3799 13.3999C23.2799 8.9999 40.5999 6 60.4399 6Z" fill="#142032"/>
<path fill-rule="evenodd" clip-rule="evenodd" d="M34.1502 21.7L32.8002 17.6499L30.0002 21.7H34.1502ZM19.3602 14.27C22.4902 14.27 24.9202 15.13 24.7702 17.85C24.6402 19.46 22.9702 21.1399 20.4702 21.2799L23.3102 25.9099L32.0602 14.27H32.5802L33.1002 16.0399L34.0402 14.27H34.8802L39.5502 26.6H35.8302L34.9102 23.95H28.3702L26.5602 26.6H19.8002L17.1102 21.63H15.4502L14.5002 26.6H11.2202L13.6002 14.27H16.8402C17.6802 14.27 18.5202 14.27 19.3602 14.27ZM16.3902 16.6899H19.8802C20.7402 16.6899 21.2902 17.29 21.1002 18.02C20.9102 18.75 20.0502 19.35 19.1902 19.35H15.9502L16.3902 16.6899Z" fill="#142032"/>
</svg>
